<?xml version="1.0" encoding="UTF-8" standalone="no"?>
<!DOCTYPE svg PUBLIC "-//W3C//DTD SVG 1.1//EN" "http://www.w3.org/Graphics/SVG/1.1/DTD/svg11.dtd">
<svg version="1.1" xmlns="http://www.w3.org/2000/svg" xmlns:xlink="http://www.w3.org/1999/xlink" preserveAspectRatio="xMidYMid meet" viewBox="0 0 900 900" width="900" height="900"><defs><path d="M0 0L901.8 0L901.8 100L0 100L0 0Z" id="a1mmYcd4zC"></path><path d="M99.6 100L299.6 100L299.6 200L99.6 200L99.6 100Z" id="a88PnegI3"></path><path d="M599.6 100L799.6 100L799.6 200L599.6 200L599.6 100Z" id="aINn0RNnD"></path><path d="M0 200L400 200L400 300L0 300L0 200Z" id="cZet6oFf9"></path><path d="M501.8 200L901.8 200L901.8 300L501.8 300L501.8 200Z" id="d1XGmJ9Dyu"></path><path d="M200 300L400 300L400 400L200 400L200 300Z" id="cBkgwcBGA"></path><path d="M-0.4 300L99.6 300L99.6 600L-0.4 600L-0.4 300Z" id="a7M8ztVq9"></path><path d="M501.8 300L701.8 300L701.8 400L501.8 400L501.8 300Z" id="eqofI1j8C"></path><path d="M800 300L900 300L900 600L800 600L800 300Z" id="a1M1l0Te8J"></path><path d="M199.6 500L399.6 500L399.6 600L199.6 600L199.6 500Z" id="n4Zkqmd3RO"></path><path d="M499.6 500L699.6 500L699.6 600L499.6 600L499.6 500Z" id="jfLqtdupr"></path><path d="M-0.4 600L399.6 600L399.6 700L-0.4 700L-0.4 600Z" id="d46qwkuT9q"></path><path d="M499.6 600L899.6 600L899.6 700L499.6 700L499.6 600Z" id="b27VEOTyJ"></path><path d="M99.6 700L399.6 700L399.6 800L99.6 800L99.6 700Z" id="g2wTC4rXY"></path><path d="M499.6 700L799.6 700L799.6 800L499.6 800L499.6 700Z" id="a1Yt3IHHAf"></path><path d="M0 800L400 800L400 900L0 900L0 800Z" id="b3n7XSwg63"></path><path d="M500 800L900 800L900 900L500 900L500 800Z" id="c6x68Ehp2"></path></defs><g><g><g><use xlink:href="#a1mmYcd4zC" opacity="1" fill="#ffffff" fill-opacity="1"></use></g><g><use xlink:href="#a88PnegI3" opacity="1" fill="#ffffff" fill-opacity="1"></use></g><g><use xlink:href="#aINn0RNnD" opacity="1" fill="#ffffff" fill-opacity="1"></use></g><g><use xlink:href="#cZet6oFf9" opacity="1" fill="#ffffff" fill-opacity="1"></use></g><g><use xlink:href="#d1XGmJ9Dyu" opacity="1" fill="#ffffff" fill-opacity="1"></use></g><g><use xlink:href="#cBkgwcBGA" opacity="1" fill="#ffffff" fill-opacity="1"></use></g><g><use xlink:href="#a7M8ztVq9" opacity="1" fill="#ffffff" fill-opacity="1"></use></g><g><use xlink:href="#eqofI1j8C" opacity="1" fill="#ffffff" fill-opacity="1"></use></g><g><use xlink:href="#a1M1l0Te8J" opacity="1" fill="#ffffff" fill-opacity="1"></use></g><g><use xlink:href="#n4Zkqmd3RO" opacity="1" fill="#ffffff" fill-opacity="1"></use></g><g><use xlink:href="#jfLqtdupr" opacity="1" fill="#ffffff" fill-opacity="1"></use></g><g><use xlink:href="#d46qwkuT9q" opacity="1" fill="#ffffff" fill-opacity="1"></use></g><g><use xlink:href="#b27VEOTyJ" opacity="1" fill="#ffffff" fill-opacity="1"></use></g><g><use xlink:href="#g2wTC4rXY" opacity="1" fill="#ffffff" fill-opacity="1"></use></g><g><use xlink:href="#a1Yt3IHHAf" opacity="1" fill="#ffffff" fill-opacity="1"></use></g><g><use xlink:href="#b3n7XSwg63" opacity="1" fill="#ffffff" fill-opacity="1"></use></g><g><use xlink:href="#c6x68Ehp2" opacity="1" fill="#ffffff" fill-opacity="1"></use></g></g></g></svg>